<svg xmlns="http://www.w3.org/2000/svg" width="42" height="33" viewBox="0 0 42 33">
  <metadata><?xpacket begin="﻿" id="W5M0MpCehiHzreSzNTczkc9d"?>
<x:xmpmeta xmlns:x="adobe:ns:meta/" x:xmptk="Adobe XMP Core 5.6-c142 79.160924, 2017/07/13-01:06:39        ">
   <rdf:RDF xmlns:rdf="http://www.w3.org/1999/02/22-rdf-syntax-ns#">
      <rdf:Description rdf:about=""/>
   </rdf:RDF>
</x:xmpmeta>
                                                                                                    
                                                                                                    
                                                                                                    
                                                                                                    
                                                                                                    
                                                                                                    
                                                                                                    
                                                                                                    
                                                                                                    
                                                                                                    
                                                                                                    
                                                                                                    
                                                                                                    
                                                                                                    
                                                                                                    
                                                                                                    
                                                                                                    
                                                                                                    
                                                                                                    
                                                                                                    
                           
<?xpacket end="w"?></metadata>
<defs>
    <style>
      .cls-1 {
        fill: #a8ca1e;
        fill-rule: evenodd;
      }
    </style>
  </defs>
  <path id="unread_mail" data-name="unread mail" class="cls-1" d="M1214.25,2201h-34.5a3.771,3.771,0,0,0-2.47.93,0.5,0.5,0,0,0-.12.08,0.1,0.1,0,0,0-.03.04,3.6,3.6,0,0,0-1.13,2.62v25.66a3.716,3.716,0,0,0,3.75,3.67h34.5a3.716,3.716,0,0,0,3.75-3.67v-25.66A3.716,3.716,0,0,0,1214.25,2201Zm-34.5,1.47h34.5a2.236,2.236,0,0,1,.86.17l-18.13,17.72-18.11-17.72A2.338,2.338,0,0,1,1179.75,2202.47Zm-2.25,27.86v-25.66a2.07,2.07,0,0,1,.27-1.02l14.03,13.71-14.13,13.81A2.136,2.136,0,0,1,1177.5,2230.33Zm36.75,2.2h-34.5a2.264,2.264,0,0,1-1.07-.27l14.18-13.86,3.39,3.32c0.01,0.01.03,0.01,0.04,0.02a0.753,0.753,0,0,0,.71.53,0.732,0.732,0,0,0,.71-0.55h0.01l3.39-3.32,14.18,13.87A2.256,2.256,0,0,1,1214.25,2232.53Zm2.25-2.2a2.293,2.293,0,0,1-.18.87l-14.15-13.84,14.05-13.73a2.154,2.154,0,0,1,.28,1.04v25.66Z" transform="translate(-1176 -2201)"/>
</svg>
