<svg height="512pt" viewBox="-20 0 512 512" width="512pt" xmlns="http://www.w3.org/2000/svg"><path d="m135.976562 261.929688c-4.144531 0-7.5 3.355468-7.5 7.5 0 4.144531 3.355469 7.5 7.5 7.5h.167969c4.144531 0 7.5-3.355469 7.5-7.5 0-4.144532-3.355469-7.5-7.5-7.5zm0 0"/><path d="m242.53125 261.929688c-4.144531 0-7.5 3.355468-7.5 7.5 0 4.144531 3.355469 7.5 7.5 7.5h.167969c4.144531 0 7.5-3.355469 7.5-7.5 0-4.144532-3.355469-7.5-7.5-7.5zm0 0"/><path d="m189.339844 381.398438c22.296875 0 41.03125-15.988282 44.546875-38.011719.652343-4.089844-2.132813-7.933594-6.222657-8.585938-4.085937-.648437-7.9375 2.132813-8.589843 6.222657-2.347657 14.703124-14.851563 25.375-29.738281 25.375-14.882813 0-27.386719-10.671876-29.734376-25.375-.65625-4.089844-4.503906-6.875-8.589843-6.222657-4.089844.652344-6.878907 4.496094-6.226563 8.585938 3.519532 22.023437 22.253906 38.011719 44.554688 38.011719zm0 0"/><path d="m182.738281 334.269531h13.199219c5.226562 0 10.1875-2.265625 13.609375-6.21875 3.417969-3.949219 4.949219-9.183593 4.199219-14.355469l-6.601563-45.550781c-1.273437-8.785156-8.925781-15.414062-17.804687-15.414062s-16.535156 6.628906-17.808594 15.414062l-6.601562 45.550781c-.75 5.171876.78125 10.40625 4.203124 14.355469 3.417969 3.953125 8.378907 6.21875 13.605469 6.21875zm-2.964843-18.421875 6.601562-45.550781c.210938-1.460937 1.484375-2.5625 2.964844-2.5625 1.476562 0 2.75 1.101563 2.960937 2.5625l6.601563 45.550781c.171875 1.179688-.367188 2.003906-.699219 2.390625-.335937.386719-1.074219 1.035157-2.265625 1.035157h-13.199219c-1.191406 0-1.929687-.648438-2.265625-1.035157-.332031-.386719-.871094-1.210937-.699218-2.390625zm0 0"/><path d="m267.710938 258.335938c2.445312 0 4.839843-1.195313 6.28125-3.394532 2.269531-3.464844 1.300781-8.113281-2.164063-10.382812-18.992187-12.4375-40.773437-6.527344-41.691406-6.269532-3.976563 1.117188-6.28125 5.230469-5.183594 9.210938s5.21875 6.320312 9.207031 5.238281c.160156-.042969 16.265625-4.265625 29.449219 4.367188 1.265625.832031 2.691406 1.230469 4.101563 1.230469zm0 0"/><path d="m153.730469 247.539062c1.121093-3.988281-1.203125-8.128906-5.191407-9.25-.917968-.257812-22.695312-6.167968-41.691406 6.269532-3.464844 2.269531-4.433594 6.921875-2.164062 10.386718 1.4375 2.195313 3.835937 3.390626 6.28125 3.390626 1.410156 0 2.835937-.398438 4.101562-1.226563 13.125-8.59375 29.136719-4.453125 29.445313-4.371094 3.980469 1.105469 8.101562-1.222656 9.21875-5.199219zm0 0"/><path d="m38.738281 142.488281c.824219.289063 1.660157.425781 2.484375.425781 3.097656 0 5.996094-1.933593 7.078125-5.019531 16.207031-46.195312 60.007813-77.230469 108.992188-77.230469h64.523437c1.082032.003907 1.964844.921876 1.964844 2.039063v11.53125h-8.25c-7.476562 0-13.558594 6.082031-13.558594 13.5625v26.660156c0 7.476563 6.082032 13.558594 13.558594 13.558594h8.25v14.519531c0 22.300782 18.140625 40.441406 40.4375 40.441406 4.144531 0 7.5-3.359374 7.5-7.5 0-4.144531-3.355469-7.5-7.5-7.5-14.023438 0-25.4375-11.414062-25.4375-25.441406v-14.519531h3.410156c7.480469 0 13.5625-6.082031 13.5625-13.558594v-26.660156c0-7.480469-6.082031-13.5625-13.5625-13.5625h-3.410156v-11.53125c0-9.359375-7.585938-17.003906-16.890625-17.039063h-64.601563c-55.34375 0-104.832031 35.070313-123.144531 87.265626-1.371093 3.910156.6875 8.1875 4.59375 9.558593zm202.015625-29.472656h-23.78125v-23.78125h23.78125zm0 0"/><path d="m278.496094 112.015625v26.664063c0 7.476562 6.085937 13.558593 13.5625 13.558593h26.660156c7.476562 0 13.558594-6.082031 13.558594-13.558593v-26.664063c0-7.476563-6.082032-13.558594-13.558594-13.558594h-26.660156c-7.476563 0-13.5625 6.082031-13.5625 13.558594zm15 1.441406h23.78125v23.78125h-23.78125zm0 0"/><path d="m272.667969 53.78125h26.660156c7.476563 0 13.558594-6.085938 13.558594-13.5625v-26.660156c0-7.476563-6.082031-13.558594-13.558594-13.558594h-26.660156c-7.476563 0-13.558594 6.082031-13.558594 13.558594v26.664062c0 7.472656 6.082031 13.558594 13.558594 13.558594zm1.441406-38.78125h23.777344v23.78125h-23.777344zm0 0"/><path d="m354.265625 92.507812h26.660156c7.476563 0 13.558594-6.082031 13.558594-13.558593v-26.664063c0-7.476562-6.082031-13.558594-13.558594-13.558594h-26.660156c-7.480469 0-13.5625 6.082032-13.5625 13.558594v26.664063c0 7.476562 6.085937 13.558593 13.5625 13.558593zm1.4375-38.78125h23.78125v23.78125h-23.78125zm0 0"/><path d="m459.105469 6.71875h-26.664063c-7.476562 0-13.558594 6.082031-13.558594 13.558594v26.660156c0 7.476562 6.085938 13.558594 13.558594 13.558594h26.664063c7.476562 0 13.558593-6.082032 13.558593-13.558594v-26.660156c0-7.476563-6.082031-13.558594-13.558593-13.558594zm-1.441407 38.777344h-23.78125v-23.777344h23.78125zm0 0"/><path d="m420.441406 135.125h-26.660156c-7.476562 0-13.558594 6.085938-13.558594 13.5625v26.660156c0 7.476563 6.082032 13.558594 13.558594 13.558594h26.660156c7.480469 0 13.5625-6.082031 13.5625-13.558594v-26.660156c0-7.476562-6.085937-13.5625-13.5625-13.5625zm-1.4375 38.78125h-23.78125v-23.78125h23.78125zm0 0"/><path d="m53.78125 420.933594v-26.660156c0-7.476563-6.085938-13.5625-13.558594-13.5625h-26.664062c-7.476563 0-13.558594 6.085937-13.558594 13.5625v26.660156c0 7.476562 6.082031 13.558594 13.558594 13.558594h26.664062c7.472656 0 13.558594-6.082032 13.558594-13.558594zm-15-1.441406h-23.78125v-23.78125h23.78125zm0 0"/><path d="m279.367188 369.703125c-1.957032 3.652344-.582032 8.195313 3.070312 10.152344 1.128906.605469 2.339844.890625 3.535156.890625 2.675782 0 5.265625-1.4375 6.617188-3.960938 6.003906-11.214844 9.414062-23.378906 10.136718-36.152344l1.148438-20.246093c3.726562 1 7.585938 1.535156 11.460938 1.535156 24.234374 0 43.949218-19.714844 43.949218-43.949219 0-14.871094-7.425781-28.027344-18.757812-35.984375 7.421875-12.027343 11.332031-25.769531 11.332031-40.050781v-16.925781c0-9.394531-7.640625-17.039063-17.035156-17.039063h-33.257813c-4.140625 0-7.5 3.359375-7.5 7.5 0 4.144532 3.359375 7.5 7.5 7.5h10.816406v28.492188h-44.878906c-26.78125 0-48.570312-21.789063-48.570312-48.574219 0-4.144531-3.359375-7.5-7.5-7.5-4.144532 0-7.5 3.355469-7.5 7.5 0 11.074219 2.851562 21.488281 7.847656 30.5625-9.191406 11.328125-23.085938 18.011719-37.75 18.011719h-107.734375v-43.929688c0-4.144531-3.359375-7.5-7.5-7.5-4.144531 0-7.5 3.355469-7.5 7.5v45c0 7.679688 6.246094 13.929688 13.925781 13.929688h4.261719l.457031 8.050781c-2.175781-.328125-4.378906-.496094-6.597656-.496094-3.984375 0-7.835938.539063-11.507812 1.539063-6.5625-9.992188-10.019532-21.53125-10.019532-33.621094v-25.796875c0-2.136719.054688-4.242187.167969-6.246094.234375-4.136719-2.933594-7.675781-7.070313-7.90625-4.132812-.226562-7.675781 2.933594-7.90625 7.066407-.128906 2.285156-.191406 4.667968-.191406 7.085937v25.796875c0 14.328125 3.90625 28.035156 11.332032 40.050781-11.332032 7.957031-18.757813 21.117188-18.757813 35.984375 0 24.234375 19.714844 43.949219 43.953125 43.949219 3.925781 0 7.753906-.519531 11.457031-1.519531l.371094 6.535156h-.945313c-7.480468 0-13.5625 6.082031-13.5625 13.558594v26.660156c0 7.476562 6.085938 13.5625 13.5625 13.5625h26.660157c7.476562 0 13.558593-6.085938 13.558593-13.5625v-5.828125h12.167969c1.125 0 2.039063.910156 2.039063 2.035156v40.261719c0 7.820312 5.304687 14.617188 12.898437 16.53125 3.722657.941406 7.511719 1.621094 11.339844 2.0625v3.703125c-6.945313.96875-17.121094 3.066406-24.535156 8.535156h-5.878907v-11.808593c0-7.476563-6.082031-13.558594-13.5625-13.558594h-26.660156c-7.476562 0-13.558594 6.082031-13.558594 13.558594v11.808593h-1.792968c-22.316406 0-40.476563 17.4375-40.476563 38.867188v31.175781c0 4.144531 3.355469 7.5 7.5 7.5 4.140625 0 7.5-3.355469 7.5-7.5v-31.179688c0-13.160156 11.429688-23.867187 25.476563-23.867187h1.800781c.078125 7.410156 6.125 13.414063 13.550781 13.414063h26.660156c4.195313 0 7.949219-1.914063 10.441407-4.914063 1.820312 10.5625 9.246093 21.964844 20.660156 31.375 14.140625 11.65625 31.597656 18.078125 49.148437 18.078125 17.550782 0 35.003907-6.421875 49.148438-18.078125 13.21875-10.898437 21.109375-24.476563 21.109375-36.316406 0-1.246094-.097656-2.421875-.253906-3.558594h54.671875c14.046875 0 25.476562 10.707031 25.476562 23.867187v31.179688c0 4.144531 3.359375 7.5 7.5 7.5 4.144532 0 7.5-3.355469 7.5-7.5v-31.179688c0-21.429687-18.15625-38.867187-40.476562-38.867187h-63.804688c-6.777344-5.023437-15.8125-7.132813-22.183594-8.15625v-4.339844c14.867188-2.042969 28.839844-7.859375 40.9375-17.148437 3.285157-2.523438 3.902344-7.230469 1.382813-10.515625-2.523437-3.285157-7.230469-3.902344-10.519531-1.382813-12.679688 9.738282-27.847656 14.886719-43.867188 14.886719h-52.894531c-5.984375 0-11.929687-.734375-17.675781-2.183594-.921875-.234375-1.566406-1.050781-1.566406-1.992187v-40.257813c0-9.394531-7.640626-17.039062-17.035157-17.039062h-12.167969v-5.828125c0-7.476563-6.082031-13.5625-13.558593-13.5625h-10.691407l-5.6875-100.472656h89.523438c17.832031 0 34.796875-7.550782 46.757812-20.511719 11.625 12.601562 28.261719 20.511719 46.714844 20.511719h26.664063l-6.414063 113.320312c-.601562 10.582031-3.421875 20.648438-8.386718 29.921875zm-111.476563 53.09375h44.964844v16.644531c0 11.589844-10.085938 21.019532-22.484375 21.019532-12.394532 0-22.480469-9.429688-22.480469-21.019532zm-60.414063 25.070313h-23.78125v-23.777344h23.78125zm81.6875 44.539062c-31.921874 0-55.257812-25.910156-55.257812-39.394531 0-2.480469.003906-8.691407 19.027344-11.890625.917968 19.082031 17.359375 34.335937 37.4375 34.335937 19.925781 0 36.265625-15.019531 37.414062-33.894531 16.621094 3.304688 16.636719 9.109375 16.636719 11.449219 0 13.484375-23.335937 39.394531-55.257813 39.394531zm-89.71875-126.691406h-23.78125v-23.777344h23.78125zm-36.101562-58.792969c-15.964844 0-28.953125-12.988281-28.953125-28.949219 0-15.964844 12.988281-28.953125 28.953125-28.953125 2.542969 0 5.046875.34375 7.472656.992188l3.109375 54.90625c-3.355469 1.324219-6.90625 2.003906-10.582031 2.003906zm251.988281 0c-3.683593 0-7.230469-.675781-10.582031-1.996094l3.109375-54.929687c2.421875-.644532 4.921875-.976563 7.476563-.976563 15.960937 0 28.949218 12.988281 28.949218 28.953125 0 15.960938-12.988281 28.949219-28.953125 28.949219zm-1.878906-80.457031c7.679687 0 13.925781-6.25 13.925781-13.929688v-29.5625h7.445313c1.121093 0 2.035156.914063 2.035156 2.035156v16.925782c0 12.054687-3.457031 23.628906-10.007813 33.625-3.675781-1-7.535156-1.542969-11.519531-1.542969-2.226562 0-4.425781.164063-6.59375.492187l.453125-8.046874h4.261719zm0 0"/></svg>