<?xml version="1.0" encoding="iso-8859-1"?>
<!-- Generator: Adobe Illustrator 22.1.0, SVG Export Plug-In . SVG Version: 6.00 Build 0)  -->
<svg xmlns="http://www.w3.org/2000/svg" xmlns:xlink="http://www.w3.org/1999/xlink" version="1.1" id="Layer_3" x="0px" y="0px" viewBox="0 0 64 64" style="enable-background:new 0 0 64 64;" xml:space="preserve" width="512" height="512">
<g>
	<path d="M57.289,36.007l-7.371-4.423l12.763-11.852c0.375-0.348,0.426-0.923,0.119-1.332l-3-4c-0.17-0.228-0.429-0.371-0.712-0.396   c-0.279-0.028-0.563,0.072-0.77,0.265l-14.58,13.608l-0.024-0.014C46.365,25.006,48,21.195,48,17c0-8.822-7.178-16-16-16   S16,8.178,16,17c0,4.195,1.635,8.006,4.286,10.862l-0.024,0.014L5.682,14.269c-0.207-0.192-0.488-0.292-0.77-0.265   C4.629,14.029,4.37,14.173,4.2,14.4l-3,4c-0.307,0.409-0.256,0.984,0.119,1.332l12.763,11.852l-7.371,4.423   C3.537,36.158,1,38.788,1,42c0,3.252,2.748,6,6,6c3.026,0,5.536-2.252,5.942-5.169l7.728-1.545l-3.525,14.98   C17.049,56.677,17,57.098,17,57.53c0,3.016,2.454,5.47,5.469,5.47c1.911,0,3.708-1.018,4.69-2.655   c0.036-0.06,0.065-0.123,0.088-0.188L29.713,53h4.574l2.466,7.156c0.022,0.065,0.052,0.129,0.088,0.188   C37.823,61.982,39.62,63,41.531,63C44.546,63,47,60.546,47,57.519c0-0.421-0.049-0.842-0.145-1.253L43.33,41.286l7.728,1.545   C51.463,45.748,53.974,48,57,48c3.252,0,6-2.748,6-6C63,38.788,60.463,36.158,57.289,36.007z M53.595,36.123l-3.697,4.437   l-1.342-0.268l3.06-5.355L53.595,36.123z M53.671,25.37l-1.221,1.134l-2.623-1.574l2.671-2.493L53.671,25.37z M54.066,20.973   l0.952-0.888l3.036,1.215l-2.813,2.612L54.066,20.973z M58.868,16.491l1.792,2.389l-0.983,0.913l-3.042-1.217L58.868,16.491z    M48.306,26.35l2.618,1.571l-2.792,2.592l-2.61-1.566L48.306,26.35z M44.312,54.19l-6.641,2.49l-0.415-1.205l6.662-2.961   L44.312,54.19z M40.597,51.801l-1.381-3.453l3.643-0.331l0.592,2.516L40.597,51.801z M26.74,55.488L26.33,56.68l-6.641-2.49   l0.469-1.993L26.74,55.488z M20.628,50.196l0.513-2.179l3.642,0.331l-1.308,3.271L20.628,50.196z M27.977,40.165l4.466,2.791   L32,42.996l-7.745-0.704L27.977,40.165z M21.604,46.051l0.459-1.95L28,44.641v1.992L21.604,46.051z M30,44.823l1.91,0.174   C31.939,44.999,31.97,45,32,45s0.061-0.001,0.09-0.004L34,44.823v1.992l-2,0.182l-2-0.182V44.823z M36,44.641l5.937-0.54   l0.459,1.95L36,46.632V44.641z M35.736,42.656l-7.132-4.458l-8.663-7.797l1.839-1.104c1.43,1.191,3.077,2.122,4.863,2.76   l5.65,5.649c0.058,0.058,0.123,0.108,0.192,0.15l7.373,4.424L35.736,42.656z M30.325,32.911C30.876,32.968,31.434,33,32,33   s1.124-0.032,1.675-0.089L32,34.586L30.325,32.911z M33.62,36.206L33.414,36l3.943-3.942c1.786-0.637,3.433-1.569,4.863-2.76   l1.839,1.104l-8.045,7.241L33.62,36.206z M44.322,23.637C43.333,24.522,42.19,25,41,25c-1.855,0-3.515-1.129-4.616-2.897   C37.146,22.668,38.04,23,39,23c2.757,0,5-2.691,5-6c0-1.311-0.343-2.554-0.993-3.597c-0.261-0.419-0.79-0.584-1.243-0.39   l-6.699,2.871C35.475,12.001,37.976,9,41,9c1.19,0,2.333,0.478,3.322,1.363C45.391,12.339,46,14.6,46,17   S45.391,21.661,44.322,23.637z M36.039,17.643l5.647-2.42C41.893,15.771,42,16.372,42,17c0,2.206-1.346,4-3,4   C37.51,21,36.27,19.544,36.039,17.643z M41.847,7.061C41.567,7.025,41.285,7,41,7c-4.411,0-8,4.486-8,10s3.589,10,8,10   c0.285,0,0.567-0.025,0.847-0.061C39.315,29.447,35.836,31,32,31c-3.836,0-7.315-1.553-9.847-4.061C22.433,26.975,22.715,27,23,27   c4.411,0,8-4.486,8-10S27.411,7,23,7c-0.285,0-0.567,0.025-0.847,0.061C24.685,4.553,28.164,3,32,3   C35.836,3,39.315,4.553,41.847,7.061z M19.677,10.363C20.667,9.478,21.81,9,23,9c3.024,0,5.525,3.001,5.935,6.884l-6.699-2.871   c-0.454-0.195-0.982-0.027-1.243,0.391C20.343,14.447,20,15.69,20,17c0,3.309,2.243,6,5,6c0.96,0,1.854-0.332,2.616-0.897   C26.515,23.871,24.855,25,23,25c-1.19,0-2.333-0.478-3.323-1.364C18.609,21.66,18,19.4,18,17C18,14.6,18.609,12.339,19.677,10.363z    M27.961,17.643C27.73,19.544,26.49,21,25,21c-1.654,0-3-1.794-3-4c0-0.618,0.11-1.227,0.316-1.776L27.961,17.643z M11.502,22.437   l2.671,2.493l-2.623,1.574l-1.221-1.134L11.502,22.437z M8.758,23.911l-2.813-2.612l3.036-1.215l0.952,0.888L8.758,23.911z    M5.132,16.491l2.234,2.085l-3.042,1.217L3.34,18.88L5.132,16.491z M13.076,27.92l2.618-1.571l2.783,2.598l-2.61,1.566   L13.076,27.92z M12.383,34.936l3.06,5.355l-1.342,0.268l-3.697-4.437L12.383,34.936z M11,42c0,2.206-1.794,4-4,4   c-2.168,0-4-1.832-4-4c0-2.206,1.794-4,4-4c0.181,0,0.359-0.049,0.515-0.143l1.154-0.693l3.201,3.841l-0.066,0.013   C11.336,41.113,11,41.523,11,42z M17.511,39.878l-3.412-5.971l4.049-2.429l8.156,7.34l-3.463,1.979l0.133-0.567   c0.078-0.332-0.018-0.68-0.255-0.925c-0.236-0.243-0.579-0.35-0.915-0.285L17.511,39.878z M22.469,61   C20.556,61,19,59.443,19,57.519c0-0.267,0.031-0.534,0.092-0.794l0.134-0.571l6.451,2.419l-0.285,0.827   C24.76,60.389,23.648,61,22.469,61z M29,51c-0.427,0-0.807,0.271-0.945,0.674l-0.657,1.907l-2.127-1.064l1.592-3.98l5.047,0.459   C31.939,48.999,31.97,49,32,49s0.061-0.001,0.09-0.004l5.047-0.459l1.631,4.077l-2.167,0.963l-0.656-1.903   C35.807,51.271,35.427,51,35,51H29z M41.531,61c-1.179,0-2.291-0.611-2.923-1.601l-0.285-0.827l6.451-2.419l0.134,0.57   C44.969,56.984,45,57.252,45,57.53C45,59.443,43.444,61,41.531,61z M42.196,39.02c-0.333-0.063-0.678,0.041-0.915,0.285   c-0.237,0.245-0.333,0.593-0.255,0.925l0.115,0.489l-3.334-2l8.045-7.241l4.049,2.429l-3.412,5.971L42.196,39.02z M57,46   c-2.206,0-4-1.794-4-4c0-0.477-0.336-0.887-0.804-0.98l-0.066-0.013l3.201-3.841l1.154,0.693C56.641,37.951,56.819,38,57,38   c2.206,0,4,1.794,4,4C61,44.168,59.168,46,57,46z"/>
	<circle cx="25.5" cy="18.5" r="1.5"/>
	<circle cx="38.5" cy="18.5" r="1.5"/>
</g>
</svg>
