<svg xmlns="http://www.w3.org/2000/svg" width="32" height="33" viewBox="0 0 32 33">
  <metadata><?xpacket begin="﻿" id="W5M0MpCehiHzreSzNTczkc9d"?>
<x:xmpmeta xmlns:x="adobe:ns:meta/" x:xmptk="Adobe XMP Core 5.6-c142 79.160924, 2017/07/13-01:06:39        ">
   <rdf:RDF xmlns:rdf="http://www.w3.org/1999/02/22-rdf-syntax-ns#">
      <rdf:Description rdf:about=""/>
   </rdf:RDF>
</x:xmpmeta>
                                                                                                    
                                                                                                    
                                                                                                    
                                                                                                    
                                                                                                    
                                                                                                    
                                                                                                    
                                                                                                    
                                                                                                    
                                                                                                    
                                                                                                    
                                                                                                    
                                                                                                    
                                                                                                    
                                                                                                    
                                                                                                    
                                                                                                    
                                                                                                    
                                                                                                    
                                                                                                    
                           
<?xpacket end="w"?></metadata>
<defs>
    <style>
      .cls-1 {
        fill: #a8ca1e;
        fill-rule: evenodd;
      }
    </style>
  </defs>
  <path id="phone" class="cls-1" d="M400.037,2232.99c-4,0-8.595-2.82-14.454-8.87-3.827-3.95-6.3-7.34-7.575-10.37-1.71-4.08-1.254-7.57,1.355-10.37a1.023,1.023,0,0,1,.562-0.62l0.092-.06,2.023-2.09a2.145,2.145,0,0,1,3.037,0l4.555,4.7a2.277,2.277,0,0,1,0,3.14l-2.025,2.09a2.266,2.266,0,0,0,0,3.13l8.1,8.36a2.144,2.144,0,0,0,3.036,0l2.026-2.09a2.162,2.162,0,0,1,3.036,0l4.555,4.71a2.265,2.265,0,0,1,0,3.13l-2.024,2.09a0.554,0.554,0,0,0-.056.1,1.094,1.094,0,0,1-.6.58A7.821,7.821,0,0,1,400.037,2232.99Zm-19.32-29,0,0.08-0.19.2c-2.314,2.39-2.706,5.3-1.2,8.89,1.2,2.86,3.577,6.1,7.273,9.92,5.5,5.67,9.893,8.43,13.442,8.43a6.412,6.412,0,0,0,4.779-2.16l0.19-.2h0.075a1.575,1.575,0,0,1,.241-0.32l2.024-2.09a0.763,0.763,0,0,0,0-1.05l-4.555-4.7a0.715,0.715,0,0,0-1.012,0l-2.025,2.09a3.5,3.5,0,0,1-5.061,0l-8.1-8.36a3.791,3.791,0,0,1,0-5.23l2.025-2.09a0.754,0.754,0,0,0,0-1.04l-4.555-4.71a0.733,0.733,0,0,0-1.012,0l-2.025,2.09A1.255,1.255,0,0,1,380.717,2203.99Zm5.878,6.55-6.579-6.8,1.012-1.04,6.579,6.79Zm18.727,19.33-6.58-6.79,1.012-1.05,6.58,6.8Z" transform="translate(-377 -2200)"/>
</svg>
