<svg xmlns="http://www.w3.org/2000/svg" width="30" height="44" viewBox="0 0 30 44">
  <metadata><?xpacket begin="﻿" id="W5M0MpCehiHzreSzNTczkc9d"?>
<x:xmpmeta xmlns:x="adobe:ns:meta/" x:xmptk="Adobe XMP Core 5.6-c142 79.160924, 2017/07/13-01:06:39        ">
   <rdf:RDF xmlns:rdf="http://www.w3.org/1999/02/22-rdf-syntax-ns#">
      <rdf:Description rdf:about=""/>
   </rdf:RDF>
</x:xmpmeta>
                                                                                                    
                                                                                                    
                                                                                                    
                                                                                                    
                                                                                                    
                                                                                                    
                                                                                                    
                                                                                                    
                                                                                                    
                                                                                                    
                                                                                                    
                                                                                                    
                                                                                                    
                                                                                                    
                                                                                                    
                                                                                                    
                                                                                                    
                                                                                                    
                                                                                                    
                                                                                                    
                           
<?xpacket end="w"?></metadata>
<defs>
    <style>
      .cls-1 {
        fill: #a8ca1e;
        fill-rule: evenodd;
      }
    </style>
  </defs>
  <path id="pin" class="cls-1" d="M791,2222.47a6.445,6.445,0,1,1,6.431-6.45A6.445,6.445,0,0,1,791,2222.47Zm0-11.12a4.675,4.675,0,1,0,4.665,4.67A4.676,4.676,0,0,0,791,2211.35Zm-0.026,33.66-0.672-.79c-0.584-.69-14.308-17.03-14.308-27.7A15.294,15.294,0,0,1,791,2200.99c8.236,0,14.968,6.97,15,15.53,0.047,10.67-13.769,27.01-14.358,27.7ZM791,2202.76a13.521,13.521,0,0,0-13.24,13.76c0,8.73,10.44,22.28,13.218,25.73,2.793-3.44,13.3-17,13.261-25.73C804.211,2208.93,798.271,2202.76,791,2202.76Z" transform="translate(-776 -2201)"/>
</svg>
